# xmcd
#
# Track frame offsets:
# 150
# 12647
# 30589
# 50067
# 64625
# 77414
#
# Disc length: 1271 seconds
#
#
# Revision: 0
# Processed by: cddbd v1.5.2PL0 Copyright (c) Steve Scherf et al.
# Submitted via: FreeRIP 2.945 
#
DISCID=4404f506
DTITLE=Kenny Keyes - Kenny Keyes
DYEAR=2008
DGENRE=Country
TTITLE0=Fishing Wife
TTITLE1=By and By
TTITLE2=Goombay Marlin
TTITLE3=Momma's Mountain Moonshine
TTITLE4=Whiskey Down the Drain
TTITLE5=I Didn't Know Jesus
EXTD=
EXTT0=
EXTT1=
EXTT2=
EXTT3=
EXTT4=
EXTT5=
PLAYORDER=
